<svg width="150" height="150" viewBox="0 0 150 150" fill="none" xmlns="http://www.w3.org/2000/svg">
<rect width="150" height="150" rx="20" fill="#B1B2FF"/>
<path d="M107.083 40H50.6944C49.0836 40 47.7778 41.9587 47.7778 44.375V45.8333H42.9167C41.3058 45.8333 40 47.7921 40 50.2083V99.7917C40 105.43 43.0469 110 46.8056 110H104.167C107.388 110 110 106.083 110 101.25V44.375C110 41.9587 108.694 40 107.083 40ZM46.8056 101.25C46.5477 101.25 46.3004 101.096 46.1181 100.823C45.9358 100.549 45.8333 100.178 45.8333 99.7917V54.5833H47.7778V99.7917C47.7778 100.178 47.6753 100.549 47.493 100.823C47.3107 101.096 47.0634 101.25 46.8056 101.25ZM75.4861 98.3333H57.0139C56.2085 98.3333 55.5556 97.3539 55.5556 96.1458V94.6875C55.5556 93.4795 56.2085 92.5 57.0139 92.5H75.4861C76.2915 92.5 76.9444 93.4795 76.9444 94.6875V96.1458C76.9444 97.3539 76.2915 98.3333 75.4861 98.3333ZM100.764 98.3333H82.2917C81.4863 98.3333 80.8333 97.3539 80.8333 96.1458V94.6875C80.8333 93.4795 81.4863 92.5 82.2917 92.5H100.764C101.569 92.5 102.222 93.4795 102.222 94.6875V96.1458C102.222 97.3539 101.569 98.3333 100.764 98.3333ZM75.4861 80.8333H57.0139C56.2085 80.8333 55.5556 79.8539 55.5556 78.6458V77.1875C55.5556 75.9795 56.2085 75 57.0139 75H75.4861C76.2915 75 76.9444 75.9795 76.9444 77.1875V78.6458C76.9444 79.8539 76.2915 80.8333 75.4861 80.8333ZM100.764 80.8333H82.2917C81.4863 80.8333 80.8333 79.8539 80.8333 78.6458V77.1875C80.8333 75.9795 81.4863 75 82.2917 75H100.764C101.569 75 102.222 75.9795 102.222 77.1875V78.6458C102.222 79.8539 101.569 80.8333 100.764 80.8333ZM100.764 63.3333H57.0139C56.2085 63.3333 55.5556 62.3539 55.5556 61.1458V53.8542C55.5556 52.6461 56.2085 51.6667 57.0139 51.6667H100.764C101.569 51.6667 102.222 52.6461 102.222 53.8542V61.1458C102.222 62.3539 101.569 63.3333 100.764 63.3333Z" fill="#FDFDFD"/>
</svg>
