<svg width="50" height="50" viewBox="0 0 50 50" fill="none" xmlns="http://www.w3.org/2000/svg">
<path d="M10.4168 28.8123C10.4157 28.5011 10.4844 28.1936 10.6178 27.9123C10.7512 27.6311 10.9459 27.3834 11.1876 27.1873L23.6876 17.1248C24.0604 16.8184 24.528 16.6509 25.0105 16.6509C25.4931 16.6509 25.9607 16.8184 26.3335 17.1248L38.8335 27.5415C39.2589 27.8951 39.5265 28.4032 39.5772 28.9541C39.628 29.505 39.4579 30.0535 39.1043 30.479C38.7507 30.9044 38.2425 31.172 37.6916 31.2228C37.1407 31.2736 36.5922 31.1034 36.1668 30.7498L25.0001 21.4373L13.8335 30.4373C13.5276 30.6921 13.1553 30.8539 12.7604 30.9036C12.3655 30.9534 11.9646 30.889 11.6052 30.718C11.2457 30.5471 10.9428 30.2767 10.7322 29.939C10.5216 29.6013 10.4121 29.2103 10.4168 28.8123Z" fill="black"/>
</svg>
